HIERARCHY
ROOT Hips
{
	OFFSET 0.000000 0.000000 0.000000
	CHANNELS 6 Xposition Yposition Zposition Xrotation Yrotation Zrotation
	JOINT LeftUpLeg_virtual
	{
		OFFSET 0.000000 0.000000 0.000000
		CHANNELS 3 Xrotation Yrotation Zrotation
		JOINT LeftUpLeg
		{
			OFFSET 15.427100 -6.655098 0.678600
			CHANNELS 3 Xrotation Yrotation Zrotation
			JOINT LeftLeg
			{
				OFFSET 4.081073 -39.591068 13.024000
				CHANNELS 3 Xrotation Yrotation Zrotation
				JOINT LeftFoot
				{
					OFFSET -4.081074 -37.707932 -15.979700
					CHANNELS 3 Xrotation Yrotation Zrotation
					JOINT LeftToeBase
					{
						OFFSET 5.346399 -15.068900 20.645000
						CHANNELS 3 Xrotation Yrotation Zrotation
						JOINT LeftToe_End
						{
							OFFSET 2.754700 0.931300 11.300900
							CHANNELS 3 Xrotation Yrotation Zrotation
							End Site
							{
								OFFSET 0 0 0
							}
						}
					}
				}
			}
		}
	}
	JOINT RightUpLeg_virtual
	{
		OFFSET 0.000000 0.000000 0.000000
		CHANNELS 3 Xrotation Yrotation Zrotation
		JOINT RightUpLeg
		{
			OFFSET -15.569500 -6.655098 0.678600
			CHANNELS 3 Xrotation Yrotation Zrotation
			JOINT RightLeg
			{
				OFFSET -4.081825 -39.591045 13.023800
				CHANNELS 3 Xrotation Yrotation Zrotation
				JOINT RightFoot
				{
					OFFSET 4.081824 -37.707954 -15.979600
					CHANNELS 3 Xrotation Yrotation Zrotation
					JOINT RightToeBase
					{
						OFFSET -5.346400 -15.068900 20.645000
						CHANNELS 3 Xrotation Yrotation Zrotation
						JOINT RightToe_End
						{
							OFFSET -2.754700 0.931300 11.300900
							CHANNELS 3 Xrotation Yrotation Zrotation
							End Site
							{
								OFFSET 0 0 0
							}
						}
					}
				}
			}
		}
	}
	JOINT Spine_virtual
	{
		OFFSET 0.000000 0.000000 0.000000
		CHANNELS 3 Xrotation Yrotation Zrotation
		JOINT Spine
		{
			OFFSET -0.279200 12.230698 -2.892100
			CHANNELS 3 Xrotation Yrotation Zrotation
			JOINT Spine1
			{
				OFFSET -0.232667 10.192268 -1.242267
				CHANNELS 3 Xrotation Yrotation Zrotation
				JOINT Spine1_split
				{
					OFFSET -0.232667 10.192268 -1.242267
					CHANNELS 3 Xrotation Yrotation Zrotation
					JOINT Spine2
					{
						OFFSET -0.232667 10.192268 -1.242267
						CHANNELS 3 Xrotation Yrotation Zrotation
						JOINT Neck_virtual
						{
							OFFSET 0.000000 0.000000 0.000000
							CHANNELS 3 Xrotation Yrotation Zrotation
							JOINT Neck
							{
								OFFSET -0.418800 17.814194 8.416900
								CHANNELS 3 Xrotation Yrotation Zrotation
								JOINT Head
								{
									OFFSET 0.000000 7.031097 3.806800
									CHANNELS 3 Xrotation Yrotation Zrotation
									JOINT HeadTop_End
									{
										OFFSET 0.000000 24.646606 12.978600
										CHANNELS 3 Xrotation Yrotation Zrotation
										End Site
										{
											OFFSET 0 0 0
										}
									}
								}
							}
						}
						JOINT LeftShoulder_virtual
						{
							OFFSET 0.000000 0.000000 0.000000
							CHANNELS 3 Xrotation Yrotation Zrotation
							JOINT LeftShoulder
							{
								OFFSET 8.476499 7.247704 -3.868750
								CHANNELS 3 Xrotation Yrotation Zrotation
								JOINT LeftShoulder_split
								{
									OFFSET 8.476499 7.247704 -3.868750
									CHANNELS 3 Xrotation Yrotation Zrotation
									JOINT LeftArm
									{
										OFFSET 9.308998 -2.777710 0.208600
										CHANNELS 3 Xrotation Yrotation Zrotation
										JOINT LeftForeArm
										{
											OFFSET 29.972298 0.000000 0.000000
											CHANNELS 3 Xrotation Yrotation Zrotation
											JOINT LeftHand
											{
												OFFSET 26.026505 0.000000 0.000000
												CHANNELS 3 Xrotation Yrotation Zrotation
												End Site
												{
													OFFSET 0 0 0
												}
											}
										}
									}
								}
							}
						}
						JOINT RightShoulder_virtual
						{
							OFFSET 0.000000 0.000000 0.000000
							CHANNELS 3 Xrotation Yrotation Zrotation
							JOINT RightShoulder
							{
								OFFSET -7.570500 7.247704 -3.868750
								CHANNELS 3 Xrotation Yrotation Zrotation
								JOINT RightShoulder_split
								{
									OFFSET -7.570500 7.247704 -3.868750
									CHANNELS 3 Xrotation Yrotation Zrotation
									JOINT RightArm
									{
										OFFSET -9.308998 -2.777710 0.208500
										CHANNELS 3 Xrotation Yrotation Zrotation
										JOINT RightForeArm
										{
											OFFSET -29.972300 0.000000 0.000000
											CHANNELS 3 Xrotation Yrotation Zrotation
											JOINT RightHand
											{
												OFFSET -26.026505 0.000000 0.000000
												CHANNELS 3 Xrotation Yrotation Zrotation
												End Site
												{
													OFFSET 0 0 0
												}
											}
										}
									}
								}
							}
						}
					}
				}
			}
		}
	}
}
MOTION
Frames: 9
Frame Time: 0.03333333
-2.793484 78.057564 -1.252964 0.000000 0.000000 0.000000 -8.364867 -63.420820 -3.756413 -20.198070 7.630940 31.232314 36.544053 -7.220880 -9.276090 -15.555317 -7.107898 -10.794817 -3.547357 -0.213627 0.371708 0.000000 0.000000 0.000000 -10.968544 -58.082283 -3.558889 -16.021160 -14.210891 -28.169544 38.676650 3.161169 -10.425970 -19.405488 4.841133 18.307033 -11.184933 2.027473 0.627813 0.000000 0.000000 0.000000 -9.981803 -62.064693 -4.216899 9.991344 -1.293214 -0.777483 5.005967 -0.151422 -5.088906 1.639323 -10.475441 2.190464 0.000000 0.000000 0.000000 6.710584 0.353147 -4.362401 8.834536 21.595340 10.507910 12.964423 28.549627 -18.548010 0.000000 0.000000 0.000000 5.214954 -0.101250 -3.714179 -9.562231 -7.505837 -6.757699 0.730807 -3.741971 -2.065540 -18.731777 23.177339 -25.029122 11.912753 -44.374066 4.037157 0.000000 0.000000 0.000000 3.082867 -0.948666 -4.162746 -9.850442 2.356486 7.261482 -3.903125 1.631020 3.446520 -45.523453 -17.317951 42.587575 175.960262 64.923878 -160.952889 0.000000 0.000000 0.000000 
-3.313024 78.721153 0.231586 0.000000 0.000000 0.000000 -9.215849 -62.652314 -4.353937 -19.155686 8.403986 30.425494 35.880500 -7.388910 -8.802449 -15.278483 -7.244085 -10.033884 -3.511367 -0.206674 0.693022 0.000000 0.000000 0.000000 -12.023524 -57.571883 -4.378172 -15.306056 -14.019844 -28.627196 38.349023 3.192449 -10.165219 -18.472636 4.723901 21.269086 -14.123519 2.116169 0.066412 0.000000 0.000000 0.000000 -11.975805 -61.578841 -5.506014 9.406108 -1.698853 -0.194529 4.636098 -0.337658 -4.491383 0.301315 -9.354146 1.796933 0.000000 0.000000 0.000000 5.702785 0.147369 -3.829384 10.011141 21.019981 10.666782 12.816590 27.734991 -17.468243 0.000000 0.000000 0.000000 4.659402 -0.300697 -3.411769 -9.388346 -7.651710 -7.979696 1.320430 -3.252815 -3.363616 -18.894204 21.624864 -27.358847 14.183087 -47.816157 6.129653 0.000000 0.000000 0.000000 2.951606 -1.022504 -3.714076 -10.016421 1.343568 8.745745 -3.259210 0.867156 2.185114 -41.781401 -16.013496 38.901841 173.322703 66.084525 -157.762029 0.000000 0.000000 0.000000 
-4.178649 80.046738 1.894028 0.000000 0.000000 0.000000 -10.463319 -60.259467 -5.166471 -16.705394 9.068348 27.646774 33.678915 -6.773385 -7.319115 -14.783168 -6.332166 -9.759857 -3.392719 0.010287 0.779640 0.000000 0.000000 0.000000 -12.811841 -55.481548 -5.114860 -12.474321 -15.407848 -28.992343 36.086563 2.047764 -9.793702 -18.095451 4.075566 22.584029 -13.097442 2.410841 -0.776752 0.000000 0.000000 0.000000 -13.257987 -59.826050 -6.433416 8.185030 -2.258884 0.801249 3.714232 -0.658774 -2.985746 -0.334962 -7.050122 1.296698 0.000000 0.000000 0.000000 3.938625 -0.200076 -2.302716 10.401804 19.509710 11.434152 13.864490 24.848133 -16.518896 0.000000 0.000000 0.000000 3.446063 -0.523337 -2.047744 -9.308052 -7.051530 -9.876611 1.084864 -2.081130 -4.595791 -16.786583 18.928794 -30.752169 18.837247 -53.487215 10.020181 0.000000 0.000000 0.000000 2.068653 -1.240465 -2.336413 -9.668628 0.040634 10.759715 -2.984314 1.902882 1.142500 -37.901191 -19.760265 29.358219 -175.272940 60.512751 -167.815098 0.000000 0.000000 0.000000 
-5.162308 81.604492 3.577545 0.000000 0.000000 0.000000 -11.998159 -57.075281 -6.082552 -13.157841 9.177367 23.251352 30.595692 -5.664544 -5.008562 -14.456406 -4.528249 -10.101363 -3.430297 0.421033 0.522905 0.000000 0.000000 0.000000 -13.200516 -52.186805 -5.475973 -8.221879 -18.049304 -29.260711 32.874394 -0.283452 -9.395892 -17.398114 2.902217 22.096567 -9.985784 2.757301 -1.431085 0.000000 0.000000 0.000000 -13.944052 -56.869364 -7.020630 6.750017 -2.793339 1.909017 2.439886 -0.918898 -0.943696 -0.168439 -4.672425 0.871617 0.000000 0.000000 0.000000 1.748196 -0.521404 -0.185991 9.373025 17.432535 12.905786 15.615382 20.671535 -15.896135 0.000000 0.000000 0.000000 1.745268 -0.660817 0.025303 -9.333420 -5.839433 -11.859256 0.526185 -0.453558 -5.098438 -12.787027 15.873380 -33.703637 26.377494 -59.804822 16.340693 0.000000 0.000000 0.000000 0.576107 -1.497097 -0.394956 -8.882301 -1.201310 12.955448 -2.512956 4.282160 0.751025 -35.749087 -28.596404 16.847420 -162.787136 49.815271 -178.454743 0.000000 0.000000 0.000000 
-6.222746 83.115349 5.653954 0.000000 0.000000 0.000000 -13.557263 -53.476368 -6.797388 -9.274305 8.357434 17.869751 27.626508 -4.605058 -2.128975 -14.322254 -2.386691 -11.153764 -3.893558 0.994297 -0.059228 0.000000 0.000000 0.000000 -13.373364 -48.204091 -5.493012 -3.304219 -21.033392 -29.384092 29.555236 -2.955321 -9.102079 -15.532523 1.481579 20.851966 -8.987399 2.904816 -1.198113 0.000000 0.000000 0.000000 -14.312785 -53.044957 -7.297903 5.435768 -3.081754 2.846091 1.004743 -1.040172 1.238708 -0.094314 -2.877741 0.553731 0.000000 0.000000 0.000000 -0.473789 -0.710699 2.009770 6.350873 15.029302 14.900066 17.310218 16.240829 -15.793071 0.000000 0.000000 0.000000 -0.158834 -0.659175 2.320665 -9.442240 -4.428255 -13.392124 0.354452 0.659741 -5.275960 -7.998096 13.073430 -35.135060 36.508270 -64.879120 25.091342 0.000000 0.000000 0.000000 -1.300670 -1.635131 1.707286 -7.964884 -2.212621 15.184935 -1.400783 8.018708 0.699706 -38.751314 -39.855103 3.149467 -153.501029 38.698978 174.323899 0.000000 0.000000 0.000000 
-6.992925 84.330208 7.696423 0.000000 0.000000 0.000000 -14.994632 -49.931353 -7.179079 -6.115654 6.276691 12.477295 25.994512 -4.028301 0.922395 -14.154658 -0.580454 -12.766716 -4.790707 1.645167 -0.795044 0.000000 0.000000 0.000000 -13.734030 -44.284986 -5.380233 1.630577 -23.342132 -29.325639 26.589177 -5.223701 -9.275444 -12.072639 0.245117 19.840330 -11.982688 2.582373 0.427981 0.000000 0.000000 0.000000 -14.607562 -48.765795 -7.321634 4.459030 -3.027621 3.417531 -0.420691 -0.958303 3.108608 -0.417435 -2.264908 0.373859 0.000000 0.000000 0.000000 -2.288546 -0.651423 3.875611 1.153050 12.566886 16.947123 18.316875 12.722334 -16.647379 0.000000 0.000000 0.000000 -1.886541 -0.531558 4.363770 -9.640850 -3.372497 -14.263919 0.856207 1.569548 -5.014563 -3.807083 11.146283 -34.695896 45.731692 -66.733229 32.851267 0.000000 0.000000 0.000000 -3.231727 -1.585098 3.620156 -7.153413 -2.808659 17.344596 -1.405735 10.751688 1.545403 -47.782371 -50.277313 -10.169862 -145.381341 31.449859 168.095477 0.000000 0.000000 0.000000 
-7.238441 85.303474 9.694790 0.000000 0.000000 0.000000 -16.192135 -46.520309 -7.252232 -4.137917 3.357337 7.665169 26.181910 -3.814947 3.688704 -13.732888 0.666034 -14.178721 -5.748277 2.332608 -1.586676 0.000000 0.000000 0.000000 -14.151935 -40.473980 -5.061738 6.470169 -24.234502 -28.872524 24.044783 -6.849932 -10.148782 -7.327908 -0.692219 18.868273 -17.307827 1.379769 3.535252 0.000000 0.000000 0.000000 -14.899819 -44.351062 -7.077094 3.857336 -2.693772 3.599151 -1.595703 -0.690725 4.455914 -0.641984 -2.582600 0.326773 0.000000 0.000000 0.000000 -3.504619 -0.393928 5.210346 -5.702863 10.271746 18.876795 18.782974 10.847537 -18.621531 0.000000 0.000000 0.000000 -3.174988 -0.312110 5.834293 -9.912485 -2.934381 -14.404884 1.631509 2.054255 -4.005944 -1.207849 10.014564 -32.828147 49.770407 -65.147792 35.363468 0.000000 0.000000 0.000000 -4.774825 -1.343674 5.019702 -6.542018 -2.924102 19.178177 -2.999616 10.794384 2.503415 -61.552429 -57.609893 -21.961242 -136.191062 29.204639 160.281140 0.000000 0.000000 0.000000 
-6.996510 86.070435 11.964806 0.000000 0.000000 0.000000 -16.783955 -43.208907 -6.947836 -3.411105 0.279963 3.687700 27.705267 -3.684459 5.874917 -13.046483 1.360926 -14.739734 -6.501200 3.020560 -2.350866 0.000000 0.000000 0.000000 -14.512393 -36.916838 -4.629444 10.719286 -23.552044 -28.159755 22.225022 -7.805660 -11.457512 -1.919434 -1.521849 17.858144 -22.882168 -0.957709 7.686897 0.000000 0.000000 0.000000 -15.055914 -40.408031 -6.639115 3.511096 -2.230249 3.488543 -2.354108 -0.442586 5.234950 -0.249986 -3.233513 0.660463 0.000000 0.000000 0.000000 -4.069637 -0.118687 5.971269 -13.402358 8.321420 20.428440 18.883943 10.975287 -21.493661 0.000000 0.000000 0.000000 -3.801242 -0.125322 6.595818 -10.150191 -3.183057 -13.950512 2.309068 2.381967 -2.930103 -1.131601 8.826125 -30.506080 47.207747 -60.034364 31.210956 0.000000 0.000000 0.000000 -5.608453 -0.977245 5.857482 -6.358897 -2.494149 20.486051 -3.803813 9.758052 2.652794 -75.386792 -60.713046 -28.418821 -124.123689 31.041396 148.588402 0.000000 0.000000 0.000000 
-6.440923 86.676613 14.485775 0.000000 0.000000 0.000000 -16.554721 -40.094436 -6.357450 -3.710021 -2.328115 0.735136 29.570122 -3.440577 7.161461 -11.893043 1.516686 -14.244276 -7.118499 3.636750 -2.909730 0.000000 0.000000 0.000000 -14.684951 -33.704043 -4.227075 13.716137 -21.664479 -27.617798 21.209616 -8.110045 -12.943450 4.168409 -2.103488 17.758562 -29.185337 -4.204543 11.777754 0.000000 0.000000 0.000000 -15.180418 -37.111082 -6.185498 3.246369 -1.898046 3.252027 -2.676688 -0.308862 5.497712 0.603869 -3.938706 1.105241 0.000000 0.000000 0.000000 -4.043684 0.037344 6.259505 -20.833038 6.961194 21.600775 18.819983 12.797421 -24.766795 0.000000 0.000000 0.000000 -3.699717 -0.095497 6.751910 -10.271992 -3.764419 -13.253026 2.361569 2.361727 -1.986799 -2.642196 7.364182 -28.777964 42.005107 -52.054873 24.303507 0.000000 0.000000 0.000000 -5.678527 -0.688169 6.179824 -6.621146 -1.545298 20.857970 -3.430493 7.808722 2.975062 -81.081982 -61.151893 -24.235366 -108.686901 34.652978 131.899614 0.000000 0.000000 0.000000 
